<?xml version="1.0" standalone="no"?>
<!DOCTYPE svg PUBLIC "-//W3C//DTD SVG 20010904//EN"
 "http://www.w3.org/TR/2001/REC-SVG-20010904/DTD/svg10.dtd">
<svg version="1.0" xmlns="http://www.w3.org/2000/svg"
 width="383.000000pt" height="132.000000pt" viewBox="0 0 383.000000 132.000000"
 preserveAspectRatio="xMidYMid meet">

<g transform="translate(0.000000,132.000000) scale(0.100000,-0.100000)"
fill="#000000" stroke="none">
<path d="M2790 1315 c0 -13 1028 -1041 1034 -1034 3 3 -229 239 -514 524 -286
286 -520 515 -520 510z"/>
<path d="M3325 1279 c-4 -13 -2 -24 5 -29 15 -9 4 -30 -16 -30 -8 0 -14 -4
-14 -9 0 -22 13 -41 29 -41 26 0 43 -21 30 -36 -9 -11 -18 -9 -46 11 -20 13
-41 34 -47 47 -14 28 -63 32 -80 6 -8 -14 -5 -23 19 -48 20 -21 24 -30 13 -30
-8 0 -23 9 -33 20 -20 22 -55 26 -73 8 -27 -27 -11 -44 87 -93 71 -34 101 -55
105 -70 6 -25 48 -48 129 -70 52 -14 56 -17 47 -35 -14 -25 -32 -25 -55 0 -28
31 -75 20 -75 -16 0 -12 121 -94 137 -94 5 0 14 10 22 22 13 21 14 20 27 -18
7 -21 28 -51 45 -66 28 -23 32 -34 33 -74 1 -50 19 -72 50 -61 13 5 16 21 16
81 0 64 -4 81 -25 112 -14 20 -25 46 -25 58 0 23 38 91 46 83 12 -11 62 15 72
38 19 40 -1 73 -55 96 -80 33 -116 53 -113 64 2 6 11 9 22 7 19 -3 26 22 8 33
-17 11 -50 -15 -50 -39 0 -30 11 -38 85 -65 95 -35 114 -62 74 -102 -25 -25
-28 -24 -146 47 l-91 56 34 56 c41 69 42 84 7 136 -15 23 -28 43 -30 45 -1 2
-24 5 -51 6 -27 1 -62 6 -79 9 -26 6 -32 4 -38 -15z m65 -19 c3 -5 24 -5 47
-1 23 5 45 6 47 4 11 -11 -8 -33 -29 -33 -13 0 -34 -13 -48 -30 -25 -29 -26
-29 -59 -15 -18 8 -28 14 -21 15 19 0 37 40 24 53 -6 6 -11 15 -11 20 0 10 42
-2 50 -13z m128 -52 c23 -23 12 -53 -54 -153 -78 -117 -73 -110 -80 -103 -3 4
5 23 18 45 39 61 40 63 30 63 -6 0 -24 -22 -42 -50 -18 -27 -36 -50 -41 -50
-15 0 -10 13 21 60 30 45 32 73 2 33 -10 -12 -25 -33 -34 -45 l-17 -23 -1 26
c0 15 23 61 53 108 39 61 59 84 82 90 42 13 49 13 63 -1z m-268 -32 c5 -13 27
-34 49 -47 41 -23 46 -45 8 -33 -28 8 -108 84 -101 96 10 16 35 7 44 -16z
m-84 -50 c3 -8 37 -22 75 -31 38 -10 71 -21 74 -25 2 -4 -1 -15 -8 -25 -12
-16 -19 -14 -98 25 -98 49 -93 46 -84 59 9 16 35 13 41 -3z m382 -148 c97 -60
95 -57 76 -103 -18 -44 -13 -84 16 -125 15 -21 20 -44 20 -95 0 -49 -3 -66
-12 -63 -8 3 -14 24 -14 51 -2 40 -7 51 -43 85 -35 33 -41 45 -41 80 0 22 4
52 9 65 9 24 7 25 -69 47 l-79 22 26 39 c14 22 30 39 35 39 4 0 39 -19 76 -42z
m-8 -102 c0 -17 -47 -76 -61 -76 -15 0 -109 61 -109 71 0 5 9 9 20 9 11 0 20
-6 20 -14 0 -7 14 -16 31 -20 26 -5 36 -1 55 19 26 28 44 32 44 11z"/>
<path d="M3216 1261 c6 -7 28 -14 50 -18 53 -8 33 13 -21 22 -30 6 -37 5 -29
-4z"/>
<path d="M2864 986 c-3 -9 0 -23 7 -32 10 -13 9 -16 -9 -21 -33 -8 -28 -42 8
-56 18 -7 30 -19 30 -29 0 -23 -4 -23 -50 3 -22 12 -41 32 -44 45 -7 28 -49
42 -71 24 -21 -18 -19 -33 10 -60 14 -13 25 -27 25 -31 0 -12 -33 2 -53 23
-20 21 -31 22 -58 8 -42 -23 -23 -48 79 -99 70 -36 102 -58 114 -80 13 -24 29
-34 86 -50 38 -12 74 -21 81 -21 14 0 14 -13 -1 -28 -15 -15 -48 -16 -48 -2 0
6 -11 15 -25 22 -19 8 -28 8 -40 -2 -28 -23 -15 -45 55 -87 l69 -42 17 27 18
27 9 -35 c5 -19 25 -52 44 -72 31 -32 36 -43 35 -80 -2 -45 8 -58 46 -58 21 0
22 4 22 76 0 59 -4 82 -19 103 -29 41 -34 74 -17 115 11 27 21 36 38 36 39 0
68 27 68 63 0 47 -9 55 -91 87 -72 28 -104 60 -60 60 12 0 21 6 21 16 0 11 -8
14 -27 12 -25 -3 -28 -7 -28 -37 0 -34 2 -35 78 -65 43 -17 83 -39 89 -49 12
-23 -14 -67 -41 -67 -16 0 -158 80 -198 112 -9 7 -4 23 22 61 40 59 44 96 14
123 -12 10 -25 29 -30 42 -6 16 -16 22 -36 21 -16 0 -52 2 -80 6 -44 7 -54 5
-59 -9z m66 -15 c0 -5 20 -7 45 -6 53 4 64 -19 15 -30 -16 -4 -38 -17 -49 -31
-10 -13 -25 -22 -32 -20 -54 16 -53 15 -29 34 19 16 21 22 11 40 -11 20 -9 22
14 22 14 0 25 -4 25 -9z m130 -60 c5 -11 10 -26 10 -34 0 -22 -142 -234 -147
-220 -3 7 9 32 26 57 17 25 27 47 22 50 -5 3 -23 -17 -41 -44 -18 -28 -36 -50
-41 -50 -14 0 -11 9 21 55 17 24 26 46 21 49 -5 3 -21 -13 -37 -37 -26 -39
-29 -40 -32 -18 -3 15 15 51 52 107 44 65 63 85 88 93 46 13 46 13 58 -8z
m-272 -27 c2 -11 21 -31 42 -44 46 -29 52 -45 13 -35 -35 8 -108 79 -98 94 11
18 40 8 43 -15z m-79 -52 c6 -12 31 -23 68 -31 79 -18 86 -22 70 -45 -12 -16
-18 -15 -100 23 -48 22 -87 44 -87 49 0 27 35 29 49 4z m387 -153 c46 -29 84
-53 84 -54 0 -1 -7 -19 -15 -38 -21 -51 -19 -79 10 -121 20 -30 25 -49 25
-101 0 -49 -3 -65 -14 -65 -10 0 -14 13 -14 45 1 39 -4 50 -42 91 l-43 46 6
63 6 62 -67 18 c-37 10 -70 20 -74 22 -8 4 40 83 50 83 2 0 42 -23 88 -51z
m-22 -114 c-3 -11 -18 -30 -33 -42 l-28 -22 -52 36 c-39 25 -50 38 -42 46 8 8
16 5 31 -11 27 -29 61 -28 90 3 26 27 43 22 34 -10z"/>
<path d="M2750 971 c0 -9 59 -31 83 -31 19 0 4 19 -20 24 -16 4 -36 9 -45 12
-10 3 -18 1 -18 -5z"/>
<path d="M0 610 l0 -50 65 0 65 0 0 -200 0 -200 65 0 65 0 0 200 0 200 65 0
65 0 0 50 0 50 -195 0 -195 0 0 -50z"/>
<path d="M430 410 l0 -250 55 0 55 0 0 123 c0 67 4 127 8 133 4 6 17 16 30 23
19 10 28 10 47 -3 20 -13 24 -27 30 -89 4 -41 5 -99 4 -130 l-4 -57 53 0 52 0
0 148 c0 165 -7 187 -60 215 -42 22 -92 17 -132 -13 l-28 -21 0 86 0 85 -55 0
-55 0 0 -250z"/>
<path d="M2055 536 c-5 -2 -22 -7 -36 -10 -37 -8 -79 -51 -79 -81 0 -23 3 -25
50 -25 39 0 52 4 60 20 24 45 90 33 90 -16 0 -18 -7 -25 -27 -30 -124 -28
-157 -43 -178 -84 -25 -49 -19 -88 19 -126 28 -28 41 -34 78 -34 24 0 60 9 81
20 44 24 48 24 41 5 -5 -12 4 -15 47 -15 l54 0 -5 152 c-3 84 -9 160 -13 169
-13 26 -62 48 -118 54 -30 2 -58 3 -64 1z m85 -231 c0 -41 -36 -85 -69 -85
-29 0 -53 38 -40 62 9 17 80 57 102 58 4 0 7 -16 7 -35z"/>
<path d="M842 364 l3 -166 28 -24 c36 -31 107 -33 155 -4 26 16 32 17 32 5 0
-11 13 -15 55 -15 l55 0 0 185 0 185 -55 0 -54 0 -3 -137 c-3 -133 -4 -138
-27 -149 -17 -9 -32 -9 -52 -2 l-29 10 0 139 0 139 -56 0 -55 0 3 -166z"/>
<path d="M1250 345 l0 -185 55 0 55 0 0 124 0 124 28 10 c15 6 38 12 52 14 22
3 25 8 28 51 4 55 -9 60 -73 27 -22 -11 -41 -20 -42 -20 -2 0 -3 9 -3 20 0 17
-7 20 -50 20 l-50 0 0 -185z"/>
<path d="M1570 512 c-49 -27 -75 -82 -75 -162 1 -117 54 -174 155 -167 30 2
63 7 73 11 15 7 17 2 17 -37 0 -53 -19 -77 -58 -77 -33 0 -72 25 -72 46 0 10
-14 14 -55 14 -52 0 -55 -2 -55 -24 0 -67 92 -114 202 -102 73 7 122 35 137
78 7 18 11 114 11 234 l0 204 -50 0 c-44 0 -50 -3 -50 -21 l0 -20 -26 20 c-34
27 -106 28 -154 3z m154 -84 c10 -13 16 -43 16 -73 0 -66 -20 -95 -65 -95 -41
0 -62 20 -71 65 -7 41 2 83 23 108 23 25 78 22 97 -5z"/>
<path d="M2330 370 l0 -162 29 -29 c36 -36 97 -39 154 -9 31 17 37 17 37 5 0
-12 13 -15 55 -15 l55 0 0 185 0 185 -55 0 -55 0 0 -134 c0 -147 -5 -159 -61
-159 -49 0 -54 12 -56 156 l-2 132 -51 3 -50 3 0 -161z"/>
</g>
</svg>
